<?xml version="1.0" encoding="UTF-8"?>
<svg id="Layer_1" data-name="Layer 1" xmlns="http://www.w3.org/2000/svg" viewBox="0 0 477.14 801.18">
  <path d="M56.14,594.01c4.71.26,9.54,2.7,13.59-1.01.81-1.33-.59-2.14-.59-2.49v-193l1.5-1.5h124.5v263.5l-1.5,1.28c-.41.03-.75-.78-1-.78H1.14v-402.5l1.5-1.5h52l1.5,1.5v336.5ZM138.99,452.16c-3.68-.13-11.89-2.69-12.87,2.34l.92,139.11c2.16,2.74,13.8,2.3,13.15-3.04-2.53-43.36,3.17-90.16-.01-133.1-.14-1.85-.31-3.66-1.19-5.31Z"/>
  <path d="M336.14,799.01c-.98-.32-2.17,1-2.5,1h-121l-1.5-1.5v-121.5h55v64.5c0,2.92,9.77,3.18,12,2l1.7-2.15.28-77.83c.16-.86-.95-2.52-1.48-2.52h-66l-1.5-1.5v-262l1.5-1.5h122l1.5,1.5v401.5ZM267.28,602.87l12.42-.8c1.32-48.86,1.04-97.65.49-146.62-.46-6.59-14.94-6.46-14.06,1.04,2.53,45.97-3.36,95.51-.05,141.06.13,1.85.32,3.66,1.19,5.32Z"/>
  <path d="M406.14,256.01v124H73.64c-2.39,0-2.46-11.06-2.54-13.46-1.13-32.05-.97-68,0-100.09.06-1.95.18-10.45,1.55-10.45h333.5Z"/>
  <path d="M477.14,327.01v471.5c-3.88,2.83-10.5,1.23-15.49,1.51-1.96.11-3.84.95-5.97,1.03-11.89.44-23.72-.36-35.54-1.04v-474h54.5c.33,0,1.52,1.32,2.5,1Z"/>
  <path d="M406.14,396.01v404h-52.5l-1.55-3.45c1.03-52.31-.74-104.84-1-157-.41-81.26.63-162.38,1.05-243.55h54Z"/>
  <path d="M287.14,77.01c4.16.76,5.25-3.71,7.35-5.64,5.38-4.97,13.81-11.22,20.67-13.83,2.68-1.02,19.91-6.47,21.62-6.48.84,0,1.62-.09,2.36.41,7.64,14.82,10.13,33.52,6.18,49.96.41,1.84,6.97,3.33,9.16,4.75,5.27,3.43,8.09,9.24,8.65,15.35,2.58,28.3-1.88,60.28,0,88.97-1.15,11.59-9.07,20.03-20.49,21.97-64.04-3.17-129,2.27-192.91.46-10.88-.31-21.67-10.67-22.58-21.43,1.98-28.92-2.72-61.48,0-89.97.49-5.16,2.67-10.89,6.57-14.43s9.12-2.8,12.97-6.09c-1.44-16.88-1.68-34.23,6.4-49.55,2.84-1.95,13.48,2.89,17,4.09,1.83.63,3.92.27,5.98,1.02,9.93,3.61,20.61,13.57,27.56,21.42,2.37.01,3.26-16.75,4-19.98,2.87-12.6,11.73-30.05,19.99-40.01,2.71-3.27,13.95-15.02,16.97-17.05,1.01-.68,1.45-1.2,2.84-.83,1.92.5,16.53,16.63,18.68,19.41,12.29,15.88,20.7,37.28,21.02,57.48ZM248.78,26.42c-.81-.49-1.51-1.5-2.66-.94-30.2,28.72-33.84,77.32-10.41,111.47,2.6,3.78,7.31,9.37,10.92,11.7,4.21-.34,15.36-18.08,17.39-22.25,13.28-27.26,11.91-59.96-4.07-85.68-1.53-2.46-9.32-13.18-11.16-14.29ZM186.76,85.4c-5.99-5.48-14.65-10.77-22.66-11.98-11.2,28.85,8.76,67.08,39.44,72.66,7.42-20.73-.96-46.21-16.78-60.68ZM327.89,73.18c-1.65.17-8.17,3.13-9.99,4.09-19.29,10.23-33.01,36.37-30.65,58.14,1.36,12.57,3.69,12.33,13.91,7.12,18.82-9.57,31.97-32.06,31.88-53.13-.01-2.58-1.64-15.76-3.52-16.33-.56-.17-1.09.05-1.63.11ZM150.84,116.31c-5.66-3.41-8.29,3.28-8.76,8.15-2.49,25.88,1.96,55.74.05,82.05.18,4.37,2.63,7.54,6.26,9.74l191.27.78c6.02-.58,9-5.98,9.53-11.47,2.56-26.39-1.23-58.4-1.02-85.09l-3.3-4.81c-6.14-2.51-10.68,9.62-14.32,14.27-48.16,61.53-141.65,53.92-179.71-13.61Z"/>
  <path d="M13.14,678.01v108.5c0,.23,3.12,2.5,3.5,2.5h178.5v11H3.64c-2.95-5.17-1.15-13.31-1.46-19.54-1.44-29.27-3.49-68.06-1.03-96.95.16-1.83.8-3.61,1.1-5.4l10.89-.11Z"/>
  <path d="M476.14,276.01h-29.5c-5.07,0-5.07,15,0,15h29.5v19h-54v-52.5l1.5-1.5h51l1.5,1.5v18.5Z"/>
  <path d="M142.13,777.01c-5.88-.09-8.99,1.48-12.99-3.5-3.43-4.27-17.42-32.97-19.55-33.49-2.02.17-3.21,2.23-4.28,3.68-7.02,9.54-11.59,22.63-18.64,32.43l-10.54-.12c-1.76-1.59,21.06-37.21,23.16-41.33,1.09-2.13,2.89-4.75,2.89-7.17,0-4.96-21.42-37.7-25.11-45.95-.53-1.19-1.34-1.98-.95-3.54,3.5.38,8.42-1.24,11.05,1.44,6.56,9.8,11.46,22.39,18.11,31.89.77,1.1,2.84,4.01,4.29,3.66l20.02-34.02c1.24-3.99,12.37-3.86,12.5-1.48l-25.5,44.47.63,8.43,24.89,44.59Z"/>
  <path d="M54.14,679.51c.63-2.03,7.41-2.21,8.56-.56,1.05,32.26,1.43,64.72.44,97.07l-36,1c.31-1-1.01-2.14-1.01-2.51v-94c0-3.58,7.22-3.41,9-1v87l1.5,1.5h16l1.5-1.5v-87Z"/>
  <path d="M193.64,678.01c1.85.57,2.27,7.14.9,8.12-3.11,2.21-23.49-.11-28.9.88-1.12.21-1.87.51-2.5,1.5v33.5h30.5c2.29,1.38,2.33,9.24-.09,9.84l-27.91.16-2.5,1.5v32c.63.99,1.38,1.29,2.5,1.5,3.92.72,27.37-.61,28.55.5l.95,8.5h-41v-96.5l1.5-1.5h38Z"/>
</svg>